<?xml version="1.0" encoding="utf-8"?>
<!-- Generator: Adobe Illustrator 16.0.3, SVG Export Plug-In . SVG Version: 6.00 Build 0)  -->
<!DOCTYPE svg PUBLIC "-//W3C//DTD SVG 1.1//EN" "http://www.w3.org/Graphics/SVG/1.1/DTD/svg11.dtd">
<svg version="1.1" id="Layer_1" xmlns="http://www.w3.org/2000/svg" xmlns:xlink="http://www.w3.org/1999/xlink" x="0px" y="0px"
	 width="780px" height="184px" viewBox="0 0 759 184" enable-background="new 0 0 759 184" xml:space="preserve">
<g>
	<g id="XMLID_1_">
		<g>
			<path fill="#8CC63F" d="M174.938,97.478c0,0.197,0,0.382-0.011,0.58h-86.91l-0.313-0.313l61.436-61.436l0.313-0.313
				C165.203,51.722,174.938,73.464,174.938,97.478z"/>
			<path fill="#15D6FF" d="M88.017,98.057h86.91c-0.151,23.92-9.967,45.546-25.74,61.169l-0.046-0.047L88.017,98.057z"/>
			<path fill="#FCEE4E" d="M149.453,35.995l-0.313,0.313L87.704,97.744l-0.267-0.267v-86.91c0.197-0.011,0.383-0.011,0.58-0.011
				C112.007,10.557,133.726,20.269,149.453,35.995z"/>
			<path fill="#4F4AFF" d="M149.14,159.18l0.046,0.047c-15.704,15.564-37.318,25.172-61.169,25.172c-0.197,0-0.382,0-0.58-0.012
				v-86.33h0.58L149.14,159.18z"/>
			<path fill="#B654FF" d="M87.438,98.057v86.33c-23.781-0.15-45.303-9.851-60.902-25.474l60.856-60.856H87.438z"/>
			<path fill="#E8313C" d="M87.438,97.478v0.533l-0.046,0.046H1.108c-0.012-0.197-0.012-0.383-0.012-0.58
				c0-23.851,9.607-45.466,25.172-61.169L87.438,97.478z"/>
			<path fill="#F7934A" d="M87.438,10.568v86.91L26.269,36.308C41.891,20.535,63.517,10.719,87.438,10.568z"/>
			<path fill="#FF8ABC" d="M87.391,98.057l-60.856,60.856c-15.6-15.599-25.277-37.098-25.427-60.856H87.391z"/>
		</g>
		<g>
		</g>
	</g>
	<polygon fill="#808080" points="69.291,0 87.32,31.229 105.35,0 	"/>
</g>
<text transform="matrix(1 0 0 1 193.2402 136.5557)"><tspan x="0" y="0" font-family="Open Sans, sans-serif" font-weight="400" font-size="114">Mojo</tspan><tspan x="246.258" y="0" font-family="Open Sans, sans-serif" font-weight="600" font-size="114">Wheel</tspan></text>
</svg>
